<?xml version="1.0" encoding="UTF-8"?><svg xmlns="http://www.w3.org/2000/svg" xmlns:xlink="http://www.w3.org/1999/xlink" viewBox="0 0 50 50" version="1.1"><path d="M14.617 28.418c-.191-.48-.387-.957-.582-1.434-.48-1.34-.289-2.582.68-3.632.773-.86 1.738-1.532 2.996-1.625a2.936 2.936 0 0 1 2.027.476c.098.098.196.098.39.192-.097-.286-.194-.477-.292-.762-.965-2.965-2.027-5.93-2.996-8.89-.387-1.243-.676-2.485-.965-3.727 0-1.149.094-2.2.48-3.157.774-1.625 2.223-2.004 3.383-1.812.774.187 1.258.668 1.645 1.242.87 1.145 1.547 2.387 2.222 3.727 1.356 2.675 2.32 5.543 3.29 8.41.19.574.386 1.05.578 1.625 0 .094.097.094.191.191.195-.574.484-1.148.68-1.816.773-2.39 1.64-4.778 2.8-6.977.68-1.433 1.454-2.965 2.516-4.207.098-.285.387-.476.578-.668 1.356-1.242 3.192-.86 4.063.285.77.957.965 2.008.867 3.157-.191 1.625-.676 3.25-1.16 4.875-.867 2.578-1.836 5.16-2.707 7.742 0 .094-.094.187-.094.285.191.098.387.098.578.191 1.16.383 2.32.86 2.996 1.91.485.766.774 1.626.969 2.489.29 1.43.29 2.863.191 4.3-.093 1.91-.48 3.82-1.16 5.544-1.449 3.535-3.77 6.304-7.25 8.027-1.738.86-3.672 1.434-5.605 1.527a15.662 15.662 0 0 1-7.828-1.144c-3.29-1.34-6.575-4.684-7.54-7.742-.484-1.532-.675-2.965-.484-4.59.29-2.004 1.547-3.344 3.48-3.918.387 0 .774 0 1.063-.094zm-.484 5.352c.097.19.293.285.387.476.484.574.87 1.149 1.355 1.723.578.668 1.16 1.336 1.934 1.625.675.285 1.253.285 1.93 0 .581-.29.679-.668.581-1.242-.097-.192-.191-.383-.289-.575-.68-1.34-1.547-2.582-2.61-3.632-.581-.575-1.066-1.149-1.741-1.625-.578-.477-1.16-.477-1.739-.094-.87.57-1.449 1.336-1.742 2.387-.289 1.05-.094 2.101.293 3.058.965 2.582 2.61 4.684 4.93 6.117 3.476 2.2 7.25 2.676 11.113 1.434 4.45-1.434 7.25-4.586 8.797-8.887.676-1.816.773-3.824.773-5.734 0-.957-.097-1.914-.386-2.774-.29-.765-.774-1.433-1.547-1.816-.484-.191-.871-.383-1.352-.574-2.996-1.051-6.09-1.336-9.183-1.621-.676 0-1.258 0-1.934.187-.484.192-.871.48-.871 1.055-.094 1.144.29 2.101 1.258 2.77.676.48 1.547.765 2.418.956 1.933.383 3.96.383 5.992.383.484 0 .867 0 1.352.094.484.098.582.477.675.957.098.383-.191.574-.48.668-.582.285-1.063.477-1.645.668-2.32.863-4.058 2.39-5.316 4.492-.871 1.531-1.16 3.156-.484 4.875.195.383.293.766.386 1.242.098.383.196.864.098 1.34-.965-.191-1.547-.672-2.031-1.433-.383-.766-.578-1.625-.676-2.485-.098-.48-.098-.957-.098-1.433-.578.378-1.254.285-1.93.187 0 .191.094.29.094.387.293 1.144-.191 2.195-1.16 2.863-.773.574-1.738.574-2.61.383-1.546-.383-2.706-1.336-3.671-2.578-.484-.668-.969-1.434-1.063-2.2-.289-.765-.289-1.148.192-1.624zm11.601-13.286v-.093c-.87-2.582-1.742-5.258-2.707-7.84a108.472 108.472 0 0 0-1.933-4.969c-.196-.477-.485-.957-.965-1.34-.871-.57-1.84-.285-2.129.668-.098.387-.191.766-.098 1.149 0 1.148.293 2.199.676 3.25 1.16 3.156 2.227 6.308 3.387 9.46 1.156-.761 2.512-.285 3.77-.285zm7.344 1.051c0-.094.098-.094.098-.191a210.377 210.377 0 0 0 3.77-10.992c.195-.762.386-1.43.288-2.293-.093-.762-.578-1.149-1.16-1.243-.48 0-.965.192-1.254.575-.582.668-.968 1.433-1.258 2.199-1.546 3.629-2.707 7.36-3.96 11.086v.191c1.062.192 2.222.383 3.476.668zm-8.797 11.469c0-.191 0-.383-.093-.574-.29-.668-.485-1.336-.774-2.102-.773-1.816-1.742-3.633-2.996-5.258-.387-.476-.871-.953-1.45-1.242-1.257-.57-3.093.574-3 2.008v.098c.196.476.294 1.05.485 1.527 1.063 2.102 2.516 3.918 4.156 5.64.485.477 1.063.954 1.743 1.243.964.383 1.93-.29 1.93-1.34zm1.84-.953c.774-1.149 1.836-1.914 2.996-2.774-1.547-.093-2.996-.285-4.351-.765.386 1.148.87 2.297 1.355 3.539z" id="surface1"/><metadata><rdf:RDF xmlns:rdf="http://www.w3.org/1999/02/22-rdf-syntax-ns#" xmlns:rdfs="http://www.w3.org/2000/01/rdf-schema#" xmlns:dc="http://purl.org/dc/elements/1.1/"><rdf:Description about="https://iconscout.com/legal#licenses" dc:title="angellist" dc:description="angellist" dc:publisher="Iconscout" dc:date="2017-12-09" dc:format="image/svg+xml" dc:language="en"><dc:creator><rdf:Bag><rdf:li>Icons8</rdf:li></rdf:Bag></dc:creator></rdf:Description></rdf:RDF></metadata></svg>